<?xml version="1.0" encoding="utf-8"?>
<!-- Generator: Adobe Illustrator 19.1.0, SVG Export Plug-In . SVG Version: 6.00 Build 0)  -->
<!DOCTYPE svg PUBLIC "-//W3C//DTD SVG 1.1//EN" "http://www.w3.org/Graphics/SVG/1.1/DTD/svg11.dtd">
<svg version="1.1" id="Layer_1" xmlns="http://www.w3.org/2000/svg" xmlns:xlink="http://www.w3.org/1999/xlink" x="0px" y="0px"
	 width="758px" height="766px" viewBox="0 0 758 766" style="enable-background:new 0 0 758 766;" xml:space="preserve">
<style type="text/css">
	.st0{fill:#032B45;}
	.st1{fill:#FFFFFF;}
</style>
<g>
	<path class="st0" d="M379,751.1L379,751.1C175.7,751.1,10.9,586.3,10.9,383v0C10.9,179.7,175.7,14.9,379,14.9h0
		c203.3,0,368.1,164.8,368.1,368.1v0C747.1,586.3,582.3,751.1,379,751.1z"/>
	<path class="st1" d="M600.9,245.4c-16.3,7.2-33.9,12.1-52.3,14.3c18.8-11.3,33.2-29.1,40-50.4c-17.6,10.4-37,18-57.8,22.1
		c-16.6-17.7-40.3-28.8-66.5-28.8c-50.3,0-91,40.8-91,91c0,7.1,0.8,14.1,2.4,20.7c-75.6-3.8-142.7-40-187.6-95.1
		c-7.8,13.5-12.3,29.1-12.3,45.8c0,31.6,16.1,59.5,40.5,75.8c-14.9-0.5-28.9-4.6-41.2-11.4v1.1c0,44.1,31.4,80.9,73,89.3
		c-7.6,2.1-15.7,3.2-24,3.2c-5.9,0-11.6-0.6-17.1-1.7c11.6,36.2,45.2,62.5,85,63.2c-31.1,24.4-70.4,39-113.1,39
		c-7.3,0-14.6-0.4-21.7-1.3c40.3,25.8,88.1,40.9,139.6,40.9c167.4,0,259-138.7,259-259c0-3.9-0.1-7.9-0.2-11.8
		C573.2,279.7,588.6,263.7,600.9,245.4z"/>
</g>
</svg>
